<svg xmlns="http://www.w3.org/2000/svg" width="26.829" height="24.146" viewBox="0 0 26.829 24.146">
  <g id="Group_1231" data-name="Group 1231" transform="translate(-1398.9 -122)">
    <path id="Path_24447" data-name="Path 24447" d="M22.168,36.8l.094-.148L27.923,27.8a.194.194,0,0,1,.34.025c.946,2.12,1.762,4.755,1.379,6.4a10,10,0,0,1-1.113,2.435c-.065.123-.136.244-.212.36a.192.192,0,0,1-.161.085H22.333A.193.193,0,0,1,22.168,36.8Z" transform="translate(1378.328 98.986)" fill="#fff"/>
    <path id="Path_24448" data-name="Path 24448" d="M45.729,33.433v1.4a.2.2,0,0,1-.121.183,6.971,6.971,0,0,0-2.562,1.744c-1.592,2.216-2.808,5.384-5.527,5.384H26.177a7.289,7.289,0,0,1-7.277-7.3v-.13a.2.2,0,0,1,.194-.194h6.323a.215.215,0,0,1,.206.239,2.158,2.158,0,0,0,.226,1.214,2.225,2.225,0,0,0,1.994,1.239h3.13V34.768H27.879a.2.2,0,0,1-.161-.313c.034-.051.072-.105.112-.165.293-.416.711-1.062,1.127-1.8a14.071,14.071,0,0,0,.78-1.558c.045-.1.08-.194.116-.291.06-.17.123-.329.168-.487.045-.134.081-.275.116-.407a6.3,6.3,0,0,0,.15-1.426c0-.194-.009-.4-.027-.592-.009-.212-.036-.425-.063-.637-.018-.188-.051-.373-.087-.568-.045-.284-.107-.566-.179-.85l-.025-.107c-.054-.194-.1-.38-.161-.575-.177-.61-.38-1.205-.595-1.762-.078-.221-.168-.434-.257-.646-.132-.32-.266-.61-.389-.885-.063-.125-.116-.239-.17-.355-.06-.132-.123-.264-.186-.389-.045-.1-.1-.186-.132-.275l-.382-.707a.125.125,0,0,1,.141-.181l2.392.648h.007s.007,0,.009,0l.315.087.347.1.127.036V19.243A1.236,1.236,0,0,1,32.2,18a1.214,1.214,0,0,1,.87.364,1.25,1.25,0,0,1,.36.879v2.111l.255.072a.2.2,0,0,1,.058.029c.063.047.152.116.266.2.089.072.186.159.3.248.23.186.505.425.807.7.08.069.159.141.23.212.389.362.825.787,1.241,1.256.116.132.23.266.347.407s.239.284.347.425c.141.188.293.382.425.586.063.1.134.194.194.291.17.257.32.523.463.789.06.123.123.257.177.389a5.69,5.69,0,0,1,.364,1.08,1.347,1.347,0,0,1,.051.239V28.3a2.049,2.049,0,0,1,.045.338,3.61,3.61,0,0,1-.063,1.116,4.061,4.061,0,0,1-.132.467c-.054.152-.107.311-.177.461a6.242,6.242,0,0,1-.481.912c-.06.107-.132.221-.2.329s-.159.221-.23.326c-.1.134-.2.275-.311.4a4.25,4.25,0,0,1-.3.38c-.15.177-.293.344-.443.505-.089.105-.186.212-.284.309s-.194.2-.284.293c-.15.15-.275.266-.38.362l-.246.226a.2.2,0,0,1-.132.049h-1.9v2.444h2.4a2.242,2.242,0,0,0,1.458-.539,17.5,17.5,0,0,0,1.482-1.458.186.186,0,0,1,.092-.056l6.62-1.914A.2.2,0,0,1,45.729,33.433Z" transform="translate(1380 104)" fill="#fff"/>
  </g>
</svg>
