<svg xmlns="http://www.w3.org/2000/svg" width="27.149" height="22.063" viewBox="0 0 27.149 22.063">
  <path id="icons8-twitter" d="M27.091,8.228a11.142,11.142,0,0,1-3.2.878,5.584,5.584,0,0,0,2.45-3.081A11.184,11.184,0,0,1,22.8,7.376a5.572,5.572,0,0,0-9.49,5.08A15.816,15.816,0,0,1,1.831,6.635a5.582,5.582,0,0,0,1.724,7.44,5.565,5.565,0,0,1-2.524-.7v.07A5.578,5.578,0,0,0,5.5,18.909a5.575,5.575,0,0,1-1.466.195A5.365,5.365,0,0,1,2.982,19a5.583,5.583,0,0,0,5.2,3.87,11.166,11.166,0,0,1-6.917,2.383,10.958,10.958,0,0,1-1.327-.078,15.737,15.737,0,0,0,8.538,2.5A15.739,15.739,0,0,0,24.327,11.834c0-.241-.006-.485-.015-.722A11.323,11.323,0,0,0,27.091,8.228Z" transform="translate(0.059 -5.617)" fill="#fff"/>
</svg>
