<svg xmlns="http://www.w3.org/2000/svg" width="29.849" height="22.063" viewBox="0 0 29.849 22.063">
  <path id="icons8-discord" d="M27.712,9.446C25.129,7.367,21.043,7.015,20.868,7a.644.644,0,0,0-.641.38,4.306,4.306,0,0,0-.2.54A15.934,15.934,0,0,1,25.735,9.97a.649.649,0,1,1-.684,1.1,16.589,16.589,0,0,0-16.252,0,.649.649,0,0,1-.684-1.1,15.926,15.926,0,0,1,5.706-2.045,5.379,5.379,0,0,0-.2-.542A.64.64,0,0,0,12.98,7c-.175.013-4.261.365-6.879,2.471C4.735,10.738,2,18.129,2,24.519a.651.651,0,0,0,.086.322c1.886,3.315,7.034,4.182,8.207,4.22h.02a.648.648,0,0,0,.525-.266l1.186-1.632a12.6,12.6,0,0,1-4.93-2.314.649.649,0,0,1,.859-.973c.038.035,3.049,2.59,8.97,2.59s8.942-2.565,8.973-2.59a.648.648,0,0,1,.857.973,12.6,12.6,0,0,1-4.93,2.314L23.01,28.8a.648.648,0,0,0,.525.266h.02c1.174-.038,6.321-.9,8.207-4.22a.651.651,0,0,0,.086-.322C31.849,18.129,29.114,10.738,27.712,9.446ZM12.707,21.924a2.449,2.449,0,0,1-2.271-2.6,2.449,2.449,0,0,1,2.271-2.6,2.449,2.449,0,0,1,2.271,2.6A2.449,2.449,0,0,1,12.707,21.924Zm8.435,0a2.449,2.449,0,0,1-2.271-2.6,2.449,2.449,0,0,1,2.271-2.6,2.449,2.449,0,0,1,2.271,2.6A2.449,2.449,0,0,1,21.142,21.924Z" transform="translate(-2 -6.999)" fill="#fff"/>
</svg>
